name rise30.9205peak61.366fall85.3838.mot
datacolumns 19
datarows 18
range 21.01158500000000 21.03992500000000
endheader
time	ground_force1_vx	ground_force1_vy	ground_force1_vz	ground_force1_px	ground_force1_py	ground_force1_pz	ground_force2_vx	ground_force2_vy	ground_force2_vz	ground_force2_px	ground_force2_py	ground_force2_pz	ground_torque1_x	ground_torque1_y	ground_torque1_z	ground_torque2_x	ground_torque2_y	ground_torque2_z	
21.01158500000000	58.68648200000000	772.51136199999996	55.73396700000000	0.36690700000000	0.00000000000000	0.10686200000000	0.00000000000000	0.00000000000000	0.00000000000000	0.00000000000000	0.00000000000000	0.00000000000000	0.00000000000000	27.49596500000000	0.00000000000000	0.00000000000000	0.00000000000000	0.00000000000000	
21.01325100000000	57.98268500000000	774.42068900000004	55.74405700000000	0.36583100000000	0.00000000000000	0.10684300000000	0.00000000000000	0.00000000000000	0.00000000000000	0.00000000000000	0.00000000000000	0.00000000000000	0.00000000000000	27.50625300000000	0.00000000000000	0.00000000000000	0.00000000000000	0.00000000000000	
21.01494100000000	57.28842800000000	776.20597199999997	55.75029000000000	0.36478100000000	0.00000000000000	0.10682300000000	0.00000000000000	0.00000000000000	0.00000000000000	0.00000000000000	0.00000000000000	0.00000000000000	0.00000000000000	27.51330700000000	0.00000000000000	0.00000000000000	0.00000000000000	0.00000000000000	
21.01658900000000	56.60389700000000	777.86630600000001	55.75263000000000	0.36375600000000	0.00000000000000	0.10680300000000	0.00000000000000	0.00000000000000	0.00000000000000	0.00000000000000	0.00000000000000	0.00000000000000	0.00000000000000	27.51707100000000	0.00000000000000	0.00000000000000	0.00000000000000	0.00000000000000	
21.01825200000000	55.92919900000000	779.40093400000001	55.75099700000000	0.36275500000000	0.00000000000000	0.10678100000000	0.00000000000000	0.00000000000000	0.00000000000000	0.00000000000000	0.00000000000000	0.00000000000000	0.00000000000000	27.51746100000000	0.00000000000000	0.00000000000000	0.00000000000000	0.00000000000000	
21.01992900000000	55.26435900000000	780.80924800000003	55.74526600000000	0.36177800000000	0.00000000000000	0.10675900000000	0.00000000000000	0.00000000000000	0.00000000000000	0.00000000000000	0.00000000000000	0.00000000000000	0.00000000000000	27.51437200000000	0.00000000000000	0.00000000000000	0.00000000000000	0.00000000000000	
21.02158800000000	54.60932900000000	782.09080500000005	55.73527400000000	0.36082300000000	0.00000000000000	0.10673600000000	0.00000000000000	0.00000000000000	0.00000000000000	0.00000000000000	0.00000000000000	0.00000000000000	0.00000000000000	27.50767300000000	0.00000000000000	0.00000000000000	0.00000000000000	0.00000000000000	
21.02325600000000	53.96399200000000	783.24533299999996	55.72082200000000	0.35988900000000	0.00000000000000	0.10671200000000	0.00000000000000	0.00000000000000	0.00000000000000	0.00000000000000	0.00000000000000	0.00000000000000	0.00000000000000	27.49721700000000	0.00000000000000	0.00000000000000	0.00000000000000	0.00000000000000	
21.02492600000000	53.32816600000000	784.27273800000000	55.70168200000000	0.35897400000000	0.00000000000000	0.10668700000000	0.00000000000000	0.00000000000000	0.00000000000000	0.00000000000000	0.00000000000000	0.00000000000000	0.00000000000000	27.48283800000000	0.00000000000000	0.00000000000000	0.00000000000000	0.00000000000000	
21.02658900000000	52.70161200000000	785.17310899999995	55.67759700000000	0.35807700000000	0.00000000000000	0.10666100000000	0.00000000000000	0.00000000000000	0.00000000000000	0.00000000000000	0.00000000000000	0.00000000000000	0.00000000000000	27.46435600000000	0.00000000000000	0.00000000000000	0.00000000000000	0.00000000000000	
21.02825900000000	52.08403700000000	785.94672700000001	55.64829000000000	0.35719800000000	0.00000000000000	0.10663500000000	0.00000000000000	0.00000000000000	0.00000000000000	0.00000000000000	0.00000000000000	0.00000000000000	0.00000000000000	27.44157900000000	0.00000000000000	0.00000000000000	0.00000000000000	0.00000000000000	
21.02994100000000	51.47510000000000	786.59406799999999	55.61346500000000	0.35633300000000	0.00000000000000	0.10660700000000	0.00000000000000	0.00000000000000	0.00000000000000	0.00000000000000	0.00000000000000	0.00000000000000	0.00000000000000	27.41430600000000	0.00000000000000	0.00000000000000	0.00000000000000	0.00000000000000	
21.03160300000000	50.87442000000000	787.11580400000003	55.57281400000000	0.35548200000000	0.00000000000000	0.10657900000000	0.00000000000000	0.00000000000000	0.00000000000000	0.00000000000000	0.00000000000000	0.00000000000000	0.00000000000000	27.38233100000000	0.00000000000000	0.00000000000000	0.00000000000000	0.00000000000000	
21.03325200000000	50.28157800000000	787.51281100000006	55.52601900000000	0.35464300000000	0.00000000000000	0.10654900000000	0.00000000000000	0.00000000000000	0.00000000000000	0.00000000000000	0.00000000000000	0.00000000000000	0.00000000000000	27.34544400000000	0.00000000000000	0.00000000000000	0.00000000000000	0.00000000000000	
21.03493800000000	49.69612700000000	787.78616499999998	55.47275900000000	0.35381400000000	0.00000000000000	0.10651900000000	0.00000000000000	0.00000000000000	0.00000000000000	0.00000000000000	0.00000000000000	0.00000000000000	0.00000000000000	27.30343300000000	0.00000000000000	0.00000000000000	0.00000000000000	0.00000000000000	
21.03658900000000	49.11759200000000	787.93714599999998	55.41271500000000	0.35299400000000	0.00000000000000	0.10648800000000	0.00000000000000	0.00000000000000	0.00000000000000	0.00000000000000	0.00000000000000	0.00000000000000	0.00000000000000	27.25608900000000	0.00000000000000	0.00000000000000	0.00000000000000	0.00000000000000	
21.03825500000000	48.54548200000000	787.96723599999996	55.34557100000000	0.35218000000000	0.00000000000000	0.10645700000000	0.00000000000000	0.00000000000000	0.00000000000000	0.00000000000000	0.00000000000000	0.00000000000000	0.00000000000000	27.20320900000000	0.00000000000000	0.00000000000000	0.00000000000000	0.00000000000000	
21.03992500000000	47.97929100000000	787.87811899999997	55.27102000000000	0.35137200000000	0.00000000000000	0.10642400000000	0.00000000000000	0.00000000000000	0.00000000000000	0.00000000000000	0.00000000000000	0.00000000000000	0.00000000000000	27.14459500000000	0.00000000000000	0.00000000000000	0.00000000000000	0.00000000000000	
